<svg width="24" height="25" viewBox="0 0 24 25" fill="none" xmlns="http://www.w3.org/2000/svg">
<path d="M18.031 16.9275L22.314 21.2095L20.899 22.6245L16.617 18.3415C15.0237 19.6188 13.042 20.3135 11 20.3105C6.032 20.3105 2 16.2785 2 11.3105C2 6.34255 6.032 2.31055 11 2.31055C15.968 2.31055 20 6.34255 20 11.3105C20.0029 13.3525 19.3082 15.3343 18.031 16.9275ZM16.025 16.1855C17.2941 14.8804 18.0029 13.131 18 11.3105C18 7.44255 14.867 4.31055 11 4.31055C7.132 4.31055 4 7.44255 4 11.3105C4 15.1775 7.132 18.3105 11 18.3105C12.8204 18.3134 14.5699 17.6047 15.875 16.3355L16.025 16.1855ZM12.178 7.48655C11.8831 7.61975 11.625 7.8225 11.4257 8.0774C11.2264 8.33231 11.0919 8.63176 11.0338 8.95006C10.9757 9.26836 10.9957 9.596 11.0921 9.90488C11.1885 10.2138 11.3583 10.4946 11.5871 10.7234C11.8159 10.9522 12.0968 11.1221 12.4057 11.2185C12.7145 11.3148 13.0422 11.3348 13.3605 11.2767C13.6788 11.2186 13.9782 11.0841 14.2331 10.8849C14.4881 10.6856 14.6908 10.4274 14.824 10.1325C15.0868 10.9862 15.0563 11.9032 14.7375 12.7375C14.4186 13.5718 13.8297 14.2754 13.0646 14.7361C12.2994 15.1969 11.4021 15.3883 10.5155 15.2799C9.62896 15.1715 8.8042 14.7695 8.17264 14.1379C7.54108 13.5063 7.13906 12.6816 7.03064 11.795C6.92223 10.9085 7.11365 10.0111 7.5744 9.24599C8.03516 8.48085 8.73875 7.89193 9.57305 7.57307C10.4074 7.25421 11.3244 7.22375 12.178 7.48655Z" fill="white"/>
</svg>
