<svg width="166" height="57" viewBox="0 0 166 57" fill="none" xmlns="http://www.w3.org/2000/svg">
<path d="M44.1538 0.0913086H44.8521V0.762695C22.8664 7.08268 8.89258 12.4896 2.93066 16.9834C2.93066 19.1855 9.00895 21.2176 21.1655 23.0796C21.9712 22.077 23.7795 17.1177 26.5903 8.20166H28.6045V8.87305C26.0264 13.2415 24.4508 17.9771 23.8779 23.0796L31.3169 25.1206C32.6776 22.8647 33.3579 21.2803 33.3579 20.3672H34.0293C34.9245 20.5104 35.3721 20.967 35.3721 21.7368C34.4769 24.4403 33.8055 25.792 33.3579 25.792C36.509 29.6592 38.0845 32.5864 38.0845 34.5737V36.6147C37.5295 41.1086 36.6253 43.3555 35.3721 43.3555H34.7007C31.9972 41.3682 30.6455 38.4409 30.6455 34.5737V28.5044C25.0596 34.0724 20.1003 39.7031 15.7676 45.3965H15.0962V44.7251C19.1424 33.4816 21.1655 26.714 21.1655 24.4224V23.751C7.64827 22.1217 0.889648 20.0986 0.889648 17.6816V16.9834C4.95378 13.0446 15.32 8.54183 31.9883 3.4751C38.8096 1.21924 42.8647 0.0913086 44.1538 0.0913086ZM23.2065 25.1206C21.8459 28.7192 20.4941 32.9982 19.1514 37.9575C25.9189 31.8703 29.3027 28.2627 29.3027 27.1348C29.3027 25.792 27.2707 25.1206 23.2065 25.1206ZM32.6597 29.8472C32.2121 30.6349 31.9883 31.5391 31.9883 32.5596V33.9023C32.6865 38.8617 33.8145 41.3413 35.3721 41.3413L36.7148 33.231C36.7148 30.9751 35.3631 29.8472 32.6597 29.8472Z" fill="#953640"/>
<path d="M47.4431 27.8867H50.424C51.0327 27.8867 51.8205 28.6745 52.7873 30.25V33.7949C51.2118 38.1276 50.424 40.4998 50.424 40.9116C51.176 41.3055 51.7668 41.5024 52.1965 41.5024L62.8312 36.749V37.3667C57.2095 40.9116 53.4676 42.6841 51.6057 42.6841C51.3013 42.6841 50.1107 42.4871 48.0339 42.0933C46.6732 44.4565 44.7038 45.6382 42.1257 45.6382C41.0336 44.367 40.2458 42.7915 39.7624 40.9116C39.7624 34.7886 42.3226 30.4469 47.4431 27.8867ZM42.7165 36.1582V38.5483C42.8418 39.3361 43.2357 39.73 43.8981 39.73H45.0798C47.0492 39.1034 48.8306 36.7311 50.424 32.6133H51.6057V31.4316C51.6057 30.8766 51.0148 30.2858 49.8332 29.6592C47.2551 29.6592 44.8828 31.8255 42.7165 36.1582ZM43.8981 40.9116L41.5349 39.73V40.9116L42.1257 43.8657H42.7165C45.1514 43.8657 47.1298 42.2902 48.6516 39.1392H48.0339C46.6016 40.3208 45.223 40.9116 43.8981 40.9116Z" fill="#953640"/>
<path d="M78.3129 28.3433C75.0544 33.7681 73.4252 37.2593 73.4252 38.8169V39.5151C73.5684 40.4461 74.0339 40.9116 74.8217 40.9116C75.6631 40.9116 78.6889 39.7479 83.8988 37.4204C83.8988 38.8169 80.8731 40.4461 74.8217 42.3081C72.9597 41.6099 72.0287 40.9116 72.0287 40.2134V38.1187C72.0287 36.8475 72.4942 35.451 73.4252 33.9292H72.727C72.727 34.52 70.865 36.382 67.141 39.5151C66.3354 39.0496 65.4044 38.8169 64.348 38.8169C62.7009 43.4718 61.3044 45.7993 60.1586 45.7993C60.1586 45.3338 59.9258 45.1011 59.4604 45.1011C64.2585 33.9292 67.2842 28.3433 68.5375 28.3433V29.0415C67.6065 33.3205 67.141 35.8807 67.141 36.7222C73.1566 30.6707 76.8806 27.645 78.3129 27.645V28.3433Z" fill="#953640"/>
<path d="M90.6524 27.8867H93.6334C94.2421 27.8867 95.0299 28.6745 95.9967 30.25V33.7949C94.4212 38.1276 93.6334 40.4998 93.6334 40.9116C94.3854 41.3055 94.9762 41.5024 95.4059 41.5024L106.041 36.749V37.3667C100.419 40.9116 96.677 42.6841 94.815 42.6841C94.5107 42.6841 93.3201 42.4871 91.2433 42.0933C89.8826 44.4565 87.9132 45.6382 85.3351 45.6382C84.2429 44.367 83.4552 42.7915 82.9718 40.9116C82.9718 34.7886 85.532 30.4469 90.6524 27.8867ZM85.9259 36.1582V38.5483C86.0512 39.3361 86.4451 39.73 87.1075 39.73H88.2892C90.2586 39.1034 92.04 36.7311 93.6334 32.6133H94.815V31.4316C94.815 30.8766 94.2242 30.2858 93.0426 29.6592C90.4645 29.6592 88.0922 31.8255 85.9259 36.1582ZM87.1075 40.9116L84.7442 39.73V40.9116L85.3351 43.8657H85.9259C88.3608 43.8657 90.3391 42.2902 91.8609 39.1392H91.2433C89.811 40.3208 88.4324 40.9116 87.1075 40.9116Z" fill="#953640"/>
<path d="M112.902 28.9878L113.546 30.25C109.733 32.7386 107.62 35.4868 107.208 38.4946V41.6636H109.115C110.261 41.6457 113.009 38.4767 117.36 32.1567C118.201 32.2821 118.622 32.7028 118.622 33.4189C118.622 35.1556 117.145 37.4831 114.191 40.4014V41.6636C114.943 41.6636 116.84 42.514 119.884 44.2148L128.773 40.4014L129.391 41.6636C124.825 41.6636 122.077 44.2059 121.146 49.2905C116.509 53.0861 112.499 55.6195 109.115 56.8906L108.471 55.6284V54.3662C113.233 48.8877 116.402 46.1395 117.977 46.1216V45.4771C117.977 44.9757 115.865 43.7046 111.639 41.6636C110.261 42.505 108.99 42.9258 107.826 42.9258H107.208C106.6 42.9258 105.964 42.2992 105.302 41.0459C105.302 36.3909 107.835 32.3716 112.902 28.9878ZM111.639 53.0771V53.7217H112.284C114.504 52.7728 117.252 50.6602 120.529 47.3838V46.7393C118.076 46.7393 115.113 48.8519 111.639 53.0771Z" fill="#953640"/>
<path d="M139.421 28.0479C141.122 28.4775 141.972 29.328 141.972 30.5991C138.195 36.9728 134.363 40.1597 130.478 40.1597C136.44 35.6659 139.421 33.1146 139.421 32.5059C139.833 31.6823 140.039 31.0467 140.039 30.5991H138.776C134.515 30.5991 131.328 33.5801 129.216 39.542C130.29 42.0843 131.776 43.3555 133.674 43.3555L149.626 39.542V40.8042C141.265 42.9347 136.162 44 134.318 44H131.123C128.992 42.9079 127.927 41.207 127.927 38.8975C127.927 35.7643 131.543 32.1478 138.776 28.0479H139.421Z" fill="#953640"/>
<path d="M163.349 26.5439C164.638 26.5439 165.283 27.4033 165.283 29.1221L160.126 45.9067V49.1294C159.267 49.1294 158.837 48.6997 158.837 47.8403V46.5513C158.837 44.367 159.482 40.9206 160.771 36.2119C153.287 41.3861 149.411 43.9731 149.143 43.9731H147.209V42.6841C152.025 41.1444 156.975 37.6979 162.06 32.3447L160.771 32.9893H160.126C159.267 32.9893 158.837 32.5596 158.837 31.7002V31.0557C158.837 28.0479 160.341 26.5439 163.349 26.5439ZM160.771 29.1221V31.0557C162.884 29.9277 163.958 29.0684 163.994 28.4775H162.705C161.863 28.9072 161.219 29.1221 160.771 29.1221Z" fill="#953640"/>
</svg>
