<svg width="424" height="85" viewBox="0 0 424 85" fill="none" xmlns="http://www.w3.org/2000/svg">
<path d="M21.2256 14.1367H22.4121V18.8389C13.5938 34.1318 8.87695 45.1475 8.26172 51.8857H9.44824C19.0576 49.6299 30.0586 42.5547 42.4512 30.6602C43.4766 26.4707 46.626 21.3584 51.8994 15.3232C53.4229 16.1143 54.5947 16.5098 55.415 16.5098V21.2119C42.0557 36.417 35.376 51.7539 35.376 67.2227V71.9248C36.167 74.2686 38.5254 75.4404 42.4512 75.4404H43.6377L51.8994 73.1113V74.2979C50.8447 77.4326 47.2998 79 41.2646 79C34.9951 78.4141 31.8604 75.2646 31.8604 69.5518C31.8604 66.1826 33.8232 56.3535 37.749 40.0645H36.5625C31.6113 44.2539 22.5732 49.7617 9.44824 56.5879C7.0752 56.0312 5.49316 54.4639 4.70215 51.8857L16.5234 21.2119C11.0449 25.4014 5.93262 29.7227 1.18652 34.1758H0V32.9893C1.05469 29.708 8.12988 23.4238 21.2256 14.1367Z" fill="#953640"/>
<path d="M125.835 27.8916H126.933V28.9902C104.844 31.334 74.0232 42.1006 34.4725 61.29V63.5312C45.2244 62.0371 54.8777 61.29 63.4324 61.29C65.3953 57.6279 66.8895 55.7822 67.9148 55.7529H69.0135V56.8516L67.9148 62.4326C71.6355 63.458 73.4959 66.0508 73.4959 70.2109C73.4959 73.1992 71.2693 76.1729 66.8162 79.1318C64.5603 76.583 63.0662 73.2432 62.3338 69.1123C63.0662 67.6768 63.4324 66.5635 63.4324 65.7725L60.0926 63.5312H58.9939C52.49 63.5312 42.0896 64.6445 27.7928 66.8711L26.6941 64.6299C39.2625 54.6982 65.9959 43.1992 106.894 30.1328C116.885 28.6387 123.198 27.8916 125.835 27.8916ZM65.6736 65.7725V72.4521C65.908 73.9463 66.6551 74.6934 67.9148 74.6934L70.1561 70.2109C69.0428 67.252 67.9295 65.7725 66.8162 65.7725H65.6736Z" fill="#953640"/>
<path d="M99.0914 52.8965H100.19C103.09 54.332 104.541 56.5 104.541 59.4004C101.113 66.2559 94.5797 72.7891 84.941 79H79.5357C78.0709 74.4883 77.3385 70.8555 77.3385 68.1016C83.7252 57.9648 90.9762 52.8965 99.0914 52.8965ZM81.6891 73.5508V74.6494L82.7877 76.8027C87.6803 75.1914 93.8473 70.123 101.289 61.5977V57.2471L96.9381 56.1484C86.7721 60.8652 81.6891 66.666 81.6891 73.5508Z" fill="#953640"/>
<path d="M316.992 0.689453H319.848V2.0957C288.793 4.41016 231.826 21.9736 148.945 54.7861V57.6426C155.126 59.5469 159.404 60.499 161.777 60.499H218.73C224.443 61.085 227.299 62.5059 227.299 64.7617V69.0244C222.524 75.6748 215.39 79 205.898 79C200.214 77.0664 197.372 75.1621 197.372 73.2871V69.0244H200.229C200.698 72.833 202.119 74.7373 204.492 74.7373H208.754C218.246 73.5654 222.993 71.6611 222.993 69.0244C222.993 66.1826 217.778 63.8096 207.348 61.9053C181.948 62.8721 166.274 63.3555 160.327 63.3555C150.014 62.0957 144.316 59.2393 143.232 54.7861C165.908 44.3564 205.795 29.6348 262.895 10.6211C291.401 4 309.433 0.689453 316.992 0.689453Z" fill="#953640"/>
<path d="M253.378 52.8965H254.477C257.377 54.332 258.827 56.5 258.827 59.4004C255.4 66.2559 248.866 72.7891 239.228 79H233.822C232.358 74.4883 231.625 70.8555 231.625 68.1016C238.012 57.9648 245.263 52.8965 253.378 52.8965ZM235.976 73.5508V74.6494L237.074 76.8027C241.967 75.1914 248.134 70.123 255.575 61.5977V57.2471L251.225 56.1484C241.059 60.8652 235.976 66.666 235.976 73.5508Z" fill="#953640"/>
<path d="M281.522 51.6221H284.159V52.9404C284.159 56.1924 281.098 61.8613 274.975 69.9473V76.4951H277.611C279.311 76.4951 289.345 72.1299 307.714 63.3994C294.091 73.8877 283.617 79.1318 276.293 79.1318H274.975L269.745 75.1768C269.745 76.4658 266.684 79.5273 260.561 84.3613H256.649V83.043L257.968 76.4951H264.516C267.533 75.8799 271.898 68.4678 277.611 54.2588L281.522 51.6221Z" fill="#953640"/>
<path d="M319.027 52.3691V55.709C311.263 64.9961 307.382 71.6465 307.382 75.6602H309.052C312.919 75.6602 320.682 70.1084 332.343 59.0049C332.343 60.1182 332.899 60.6748 334.013 60.6748L329.003 69.0244V73.9902H330.673C333.046 73.9902 340.253 72.335 352.294 69.0244C352.294 72.335 343.973 75.6602 327.333 79C325.136 76.3047 324.037 74.0781 324.037 72.3203H322.367L312.347 79H307.382C305.155 79 304.042 77.8867 304.042 75.6602C309.725 60.1328 314.721 52.3691 319.027 52.3691Z" fill="#953640"/>
<path d="M422.318 27.8916H423.417V28.9902C401.327 31.334 370.506 42.1006 330.956 61.29V63.5312C341.708 62.0371 351.361 61.29 359.916 61.29C361.879 57.6279 363.373 55.7822 364.398 55.7529H365.497V56.8516L364.398 62.4326C368.119 63.458 369.979 66.0508 369.979 70.2109C369.979 73.1992 367.753 76.1729 363.299 79.1318C361.044 76.583 359.549 73.2432 358.817 69.1123C359.549 67.6768 359.916 66.5635 359.916 65.7725L356.576 63.5312H355.477C348.973 63.5312 338.573 64.6445 324.276 66.8711L323.177 64.6299C335.746 54.6982 362.479 43.1992 403.378 30.1328C413.368 28.6387 419.681 27.8916 422.318 27.8916ZM362.157 65.7725V72.4521C362.391 73.9463 363.138 74.6934 364.398 74.6934L366.639 70.2109C365.526 67.252 364.413 65.7725 363.299 65.7725H362.157Z" fill="#953640"/>
<path d="M403.131 21.5195C405.358 22.3398 406.471 23.1748 406.471 24.0244C406.471 28.8291 399.806 38.8193 386.476 53.9951C385.92 54.9619 385.641 56.0752 385.641 57.335V58.1699L386.476 62.3447C385.334 62.1104 384.22 60.7188 383.136 58.1699C383.136 55.0059 386.74 49.7324 393.947 42.3496C400.714 33.7656 404.333 27.9355 404.801 24.8594L403.131 24.0244H402.296C388.41 27.3643 381.466 31.5244 381.466 36.5049H380.631C379.518 36.5049 378.962 35.9482 378.962 34.835V34C378.962 30.6895 387.018 26.5293 403.131 21.5195ZM383.136 74.8252C384.25 75.001 384.806 75.5576 384.806 76.4951V79H383.136C382.023 79 381.466 78.4434 381.466 77.3301V76.4951C381.642 75.3818 382.199 74.8252 383.136 74.8252Z" fill="#953640"/>
</svg>
