<svg width="171" height="171" viewBox="0 0 171 171" fill="none" xmlns="http://www.w3.org/2000/svg">
<path d="M171 85.5C171 38.2797 132.72 0 85.5 0C38.2797 0 0 38.2797 0 85.5C0 132.72 38.2797 171 85.5 171C132.72 171 171 132.72 171 85.5Z" fill="#953640"/>
<path d="M130.373 27H132.171V28.719C75.5738 44.9008 39.6016 58.7447 24.2541 70.2507C24.2541 75.8892 39.9012 81.0921 71.1954 85.8595C73.2694 83.2924 77.9244 70.5945 85.1603 47.7659H90.3453V49.4849C83.7085 60.67 79.6527 72.7949 78.1779 85.8595L97.3277 91.0854C100.83 85.3094 102.582 81.2525 102.582 78.9146H104.31C106.615 79.2814 107.767 80.4503 107.767 82.4215C105.462 89.3434 103.734 92.8044 102.582 92.8044C110.693 102.706 114.749 110.201 114.749 115.289V120.515C113.32 132.021 110.993 137.774 107.767 137.774H106.038C99.0791 132.686 95.5994 125.191 95.5994 115.289V99.7493C81.2197 114.006 68.4531 128.423 57.2997 143H55.5714V141.281C65.9874 112.493 71.1954 95.1652 71.1954 89.2976V87.5785C36.3985 83.407 19 78.227 19 72.0385V70.2507C29.4621 60.1658 56.1475 48.6368 99.056 35.6639C116.616 29.888 127.055 27 130.373 27ZM76.4495 91.0854C72.9468 100.299 69.4671 111.255 66.0104 123.953C83.432 108.367 92.1427 99.1304 92.1427 96.2424C92.1427 92.8044 86.9117 91.0854 76.4495 91.0854ZM100.784 103.187C99.6321 105.204 99.056 107.519 99.056 110.132V113.57C100.853 126.268 103.757 132.617 107.767 132.617L111.223 111.851C111.223 106.075 107.744 103.187 100.784 103.187Z" fill="white"/>
</svg>
